<svg xmlns="http://www.w3.org/2000/svg" viewBox="0 0 24.6 24.6"><path d="M12.3,24.6A12.3,12.3,0,1,1,24.6,12.3h0A12.3,12.3,0,0,1,12.3,24.6Zm0-22.84A10.54,10.54,0,1,0,22.84,12.3h0A10.54,10.54,0,0,0,12.3,1.76ZM13.55,12.3l3.77-3.77.05-.06a.88.88,0,0,0-1.3-1.19L12.3,11.05,8.53,7.28a.9.9,0,0,0-1.19,0,.89.89,0,0,0-.06,1.25l3.77,3.77L7.28,16.07a.9.9,0,0,0-.25.62.87.87,0,0,0,.88.88h0a.9.9,0,0,0,.62-.25l3.77-3.77,3.77,3.77a.89.89,0,0,0,.62.25h0a.85.85,0,0,0,.62-.26.87.87,0,0,0,0-1.24Z" fill="#38a089"/></svg>