<svg xmlns="http://www.w3.org/2000/svg" viewBox="0 0 24.57 24.56"><path d="M20.78,13.34v9.33a1.89,1.89,0,0,1-1.89,1.89h-17A1.89,1.89,0,0,1,0,22.67v-17H0A1.89,1.89,0,0,1,1.89,3.77h9.27a.95.95,0,0,1,0,1.89H1.89v17h17V13.4a1,1,0,0,1,.92-1A.93.93,0,0,1,20.78,13.34Zm2.78-7.67L21.93,7.3h0l-7.55,7.55,0,0-.19.13a.42.42,0,0,1-.14.06l-.09,0L9.65,16H9.56l-.11,0h0a.44.44,0,0,1-.2,0,.15.15,0,0,1-.09,0A.76.76,0,0,1,9,15.93l-.16-.11-.11-.12a.91.91,0,0,1-.11-.16l-.06-.15a1.18,1.18,0,0,1,0-.2s0,0,0-.08,0-.07,0-.11a.21.21,0,0,0,0-.08l.91-4.26a.43.43,0,0,0,0-.07,1,1,0,0,1,.09-.21l.06-.09s0-.07.07-.1l7.46-7.46a.53.53,0,0,0,.06-.1l.12-.08L18.92,1l0,0a3.31,3.31,0,0,1,4.65,4.7ZM20.26,2.3l0,0-1,1,2,2,1-1h0a1.45,1.45,0,0,0,0-2A1.48,1.48,0,0,0,20.26,2.3Zm-.34,4.34-2-2-6.68,6.68-.55,2.56,2.55-.55Z" fill="#38a089"/></svg>