<svg xmlns="http://www.w3.org/2000/svg" viewBox="0 0 26.93 15.26"><path d="M13.47,12.1a4.48,4.48,0,0,0,4.47-4.47.79.79,0,0,0-.79-.79h0A2.91,2.91,0,0,1,14.25,4a.78.78,0,0,0-.78-.79h0a4.47,4.47,0,1,0,0,8.94Zm-.7-7.28a4.48,4.48,0,0,0,3.51,3.51,2.9,2.9,0,1,1-3.51-3.51Zm14,3.31a.8.8,0,0,0,0-1A24.46,24.46,0,0,0,22.9,3.57a20.38,20.38,0,0,0-4.19-2.44A13.55,13.55,0,0,0,13.47,0,13.56,13.56,0,0,0,8.22,1.13,20.69,20.69,0,0,0,4,3.58,24.4,24.4,0,0,0,.18,7.12a.8.8,0,0,0,0,1A24,24,0,0,0,4,11.68a20.2,20.2,0,0,0,4.19,2.44,13.57,13.57,0,0,0,5.25,1.14,13.52,13.52,0,0,0,5.24-1.14,19.94,19.94,0,0,0,4.19-2.44A24,24,0,0,0,26.75,8.13Zm-1.67-.5a23.41,23.41,0,0,1-5.23,4.17,7.59,7.59,0,0,0,0-8.33,21.75,21.75,0,0,1,2.08,1.35,24,24,0,0,1,3.15,2.81Zm-11.61-6A6.05,6.05,0,1,1,7.42,7.63h0a6.05,6.05,0,0,1,6.05-6ZM1.85,7.63A23.64,23.64,0,0,1,7.08,3.46a7.63,7.63,0,0,0,0,8.33A21.75,21.75,0,0,1,5,10.44,25.49,25.49,0,0,1,1.85,7.63Z" fill="#38a089"/></svg>