<svg xmlns="http://www.w3.org/2000/svg" width="24" height="22" viewBox="0 0 24 22">
  <g id="svgexport-8_1_" data-name="svgexport-8 (1)" transform="translate(-4 -5)">
    <g id="Download">
      <path id="Path_42235" data-name="Path 42235" d="M28,24V20a1,1,0,0,0-2,0v4a1,1,0,0,1-1,1H7a1,1,0,0,1-1-1V20a1,1,0,0,0-2,0v4a3,3,0,0,0,3,3H25a3,3,0,0,0,3-3Zm-6.38-5.22-5,4a1,1,0,0,1-1.24,0l-5-4a1,1,0,0,1,1.24-1.56L15,19.92V6a1,1,0,1,1,2,0V19.92l3.38-2.7a1,1,0,1,1,1.24,1.56Z" fill="#38a089"/>
    </g>
  </g>
</svg>
