<svg xmlns="http://www.w3.org/2000/svg" viewBox="0 0 24.9 30.93"><path d="M8,0,0,8.44V30.93H24.9V0ZM7.42,2.74V7.42H3Zm16,27.08-.36-.36H1.47V8.88H8.89V1.46H23.44ZM12.17,21.37,10.3,24.12l-.15.25a2.75,2.75,0,0,0-.14.3,1.34,1.34,0,0,0-.12.3,2,2,0,0,0,0,.24v.19l.17.06a2.27,2.27,0,0,0,.81.11h.27l0,1.26H6.19V25.57h.35a2.49,2.49,0,0,0,.53-.07,1.15,1.15,0,0,0,.39-.18A2.18,2.18,0,0,0,7.84,25a5.83,5.83,0,0,0,.45-.6l3-4.34-3-4.87a1.9,1.9,0,0,0-.67-.68,1.47,1.47,0,0,0-.74-.2H6.43V13H12v1.27h-.24a2.33,2.33,0,0,0-.53,0,.9.9,0,0,0-.23.08l-.52.24.42.17a.76.76,0,0,0,0,.11,1.42,1.42,0,0,0,.12.25,2.16,2.16,0,0,0,.23.39L12.76,18l1.56-2.37c.12-.19.23-.38.32-.56a1.14,1.14,0,0,0,.11-.44v-.27h-.26l-.13,0a2.23,2.23,0,0,0-.37,0h-.27l0-1.27h4.58v1.27h-.4a1.61,1.61,0,0,0-.44.06,1,1,0,0,0-.36.18,2.81,2.81,0,0,0-.39.38,6.74,6.74,0,0,0-.47.62l-2.62,3.78L17,24.69a2.62,2.62,0,0,0,.69.68,1.13,1.13,0,0,0,.6.2h.48v1.26H13.19V25.57h.34c.54,0,.73-.12.8-.19l.09-.09,0-.26a.67.67,0,0,0-.07-.18,3.07,3.07,0,0,0-.17-.31Z" fill="#fff"/></svg>