<svg xmlns="http://www.w3.org/2000/svg" viewBox="0 0 426.69 466.05">
    <path fill="#3A3A3A" d="M18.35,38.4,286.51.11a10.66,10.66,0,0,1,12.07,9,11.1,11.1,0,0,1,.11,1.52V455.38A10.67,10.67,0,0,1,288,466.05a10.56,10.56,0,0,1-1.49-.11L18.33,427.65A21.33,21.33,0,0,1,0,406.53v-347A21.33,21.33,0,0,1,18.33,38.4ZM42.69,78V388L256,418.5V47.55ZM320,382.36h64V83.69H320V41h85.33a21.33,21.33,0,0,1,21.34,21.33V403.69A21.33,21.33,0,0,1,405.35,425H320ZM175,233l59.74,85.33h-51.2l-34.14-48.77-34.13,48.77H64L123.75,233,64,147.69h51.2l34.13,48.77,34.14-48.77h51.2Z"/>
</svg>