<svg xmlns="http://www.w3.org/2000/svg" viewBox="0 0 437.97 437.32">
    <path fill="#3A3A3A" d="M219.09,298.65a16,16,0,0,1-16-16V54.6L158.93,98.76a16,16,0,0,1-22.61-22.61L207.79,4.68a16,16,0,0,1,22.61,0l71.47,71.47a16,16,0,1,1-21.82,23.41c-.27-.26-.54-.53-.8-.8L235.09,54.6V282.65A16,16,0,0,1,219.09,298.65ZM149.55,405.32c-46.08,0-74.22-9.32-91.2-26.33S32,333.85,32,287.77V285c0-41.43,7.55-68.37,21.42-85.65C66.88,182.49,88.64,172,124,168.67h0a16,16,0,0,0-3-31.87c-40.21,3.73-71.68,16.47-92.56,42.56C7.91,205,0,240.67,0,285v2.77C0,337,9.77,375.67,35.71,401.63s64.58,35.69,113.84,35.69a16,16,0,0,0,0-32ZM409.13,178.76C388,152.63,356,140.08,315.2,136.58h0a16,16,0,0,0-17.31,14.57h0a16,16,0,0,0,14.57,17.31c36,3.11,58.15,13.61,71.83,30.46,14,17.3,21.69,44.35,21.69,86.08v2.77c0,46.1-9.32,74.22-26.32,91.22s-45.12,26.33-91.22,26.33H240.64a16,16,0,0,0,0,32h47.79c49.28,0,87.91-9.77,113.85-35.69S438,337.05,438,287.77V285C438,240.33,430,204.44,409.13,178.76Z"/>
</svg>