<svg xmlns="http://www.w3.org/2000/svg" width="25.701" height="25.701" viewBox="0 0 25.701 25.701">
  <g id="play" transform="translate(0.25 0.25)">
    <path id="Path_42222" data-name="Path 42222" d="M12.6,24.02A11.419,11.419,0,1,1,24.02,12.6,11.432,11.432,0,0,1,12.6,24.02ZM12.6,0A12.6,12.6,0,1,0,25.2,12.6,12.615,12.615,0,0,0,12.6,0Zm4.408,12.815a.248.248,0,0,0,0-.429L10.042,8.364a.248.248,0,0,0-.372.214v8.046a.248.248,0,0,0,.372.214l6.967-4.022Zm.591-1.452L10.632,7.34A1.429,1.429,0,0,0,8.489,8.578v8.046a1.426,1.426,0,0,0,2.144,1.237L17.6,13.838a1.429,1.429,0,0,0,0-2.475Z" fill="#38a089" stroke="#38a089" stroke-width="0.5" fill-rule="evenodd"/>
  </g>
</svg>
