<svg xmlns="http://www.w3.org/2000/svg" viewBox="0 0 77.27 61.65"><path d="M77.27,36.65a25,25,0,1,1-25-25A25,25,0,0,1,77.27,36.65Z" fill="#da3636" opacity="0.15" style="isolation:isolate"/><path d="M39,18.3l-4.15-.18-.9,29,4.15.18Zm-13.24-.1h4.16v29H25.72Zm-4,28.91-.9-29-4.15.18.9,29ZM38,8V3.46A3.46,3.46,0,0,0,34.58,0H21a3.46,3.46,0,0,0-3.46,3.46V8H0v4.56H4.87L8.73,55.38a2.32,2.32,0,0,0,2.33,2.08H44.47a2.31,2.31,0,0,0,2.32-2.08l3.87-42.86H55.6V8ZM21.71,4.15H33.89V8H21.71ZM42.32,52.89H13.2L9.56,12.52H46Z" fill="#da3636"/></svg>